<svg width="25" height="25" viewBox="0 0 25 25" fill="none" xmlns="http://www.w3.org/2000/svg">
<g clip-path="url(#clip0_60_1043)">
<path fill-rule="evenodd" clip-rule="evenodd" d="M12.1875 0C5.45391 0 0 5.42967 0 12.1333C0 17.5023 3.48867 22.0372 8.3332 23.6448C8.94258 23.751 9.17109 23.387 9.17109 23.0685C9.17109 22.7803 9.15586 21.8248 9.15586 20.8087C6.09375 21.3698 5.30156 20.0655 5.05781 19.383C4.9207 19.0342 4.32656 17.9573 3.80859 17.6692C3.38203 17.4417 2.77266 16.8805 3.79336 16.8653C4.75312 16.8502 5.43867 17.745 5.66719 18.109C6.76406 19.9442 8.51602 19.4285 9.2168 19.11C9.32344 18.3213 9.64336 17.7905 9.99375 17.4872C7.28203 17.1838 4.44844 16.1373 4.44844 11.4963C4.44844 10.1768 4.9207 9.08483 5.69766 8.2355C5.57578 7.93217 5.14922 6.6885 5.81953 5.02017C5.81953 5.02017 6.84023 4.70167 9.17109 6.26383C10.1461 5.99083 11.182 5.85433 12.218 5.85433C13.2539 5.85433 14.2898 5.99083 15.2648 6.26383C17.5957 4.6865 18.6164 5.02017 18.6164 5.02017C19.2867 6.6885 18.8602 7.93217 18.7383 8.2355C19.5152 9.08483 19.9875 10.1617 19.9875 11.4963C19.9875 16.1525 17.1387 17.1838 14.427 17.4872C14.8687 17.8663 15.2496 18.5943 15.2496 19.7318C15.2496 21.3547 15.2344 22.659 15.2344 23.0685C15.2344 23.387 15.4629 23.7662 16.0723 23.6448C18.4917 22.8316 20.594 21.2836 22.0834 19.2186C23.5728 17.1535 24.3743 14.6756 24.375 12.1333C24.375 5.42967 18.9211 0 12.1875 0Z" fill="black"/>
</g>
<defs>
<clipPath id="clip0_60_1043">
<rect width="24.375" height="24.2667" fill="white"/>
</clipPath>
</defs>
</svg>
